<svg xmlns="http://www.w3.org/2000/svg" xmlns:xlink="http://www.w3.org/1999/xlink" width="259" height="248" version="1.1" viewBox="0 0 259 248"><title>ethereum</title><desc>Created with Sketch.</desc><g id="ethereum" fill="none" fill-rule="evenodd" stroke="none" stroke-width="1"><g id="full-color/logos/ethereum" transform="translate(5.500000, 0.000000)"><g id="Group-7" transform="translate(54.250000, 23.250000)"><polygon id="Fill-1" fill="#8C8C8C" points="66.712 0 19.551 74.183 1.756 102.172 66.712 74.183"/><polygon id="Fill-2" fill="#393939" points="1.757 102.172 22.596 113.85 66.713 138.57 66.713 113.85 66.713 74.183"/><polygon id="Fill-3" fill="#343434" points="66.712 0 66.712 74.183 131.668 102.172 131.668 102.172 113.875 74.183"/><polygon id="Fill-4" fill="#151515" points="66.712 113.85 66.712 138.571 110.831 113.85 131.668 102.171 66.712 74.185"/><polygon id="Fill-5" fill="#8C8C8C" points="1.757 113.85 20.263 138.571 66.713 200.622 66.713 150.23 66.713 150.228 45.896 138.571 1.758 113.85"/><polygon id="Fill-6" fill="#343434" points="87.542 138.571 66.713 150.229 66.713 200.623 113.191 138.571 131.669 113.901 131.669 113.871"/></g></g></g></svg>