<svg xmlns="http://www.w3.org/2000/svg" xmlns:xlink="http://www.w3.org/1999/xlink" width="897" height="241" version="1.1" viewBox="0 0 897 241"><title>ethereum-logo-horizontal</title><desc>Created with Sketch.</desc><g id="ethereum-logo-horizontal" fill="none" fill-rule="evenodd" stroke="none" stroke-width="1"><text id="ETH-Wallet" fill="#000" font-family="Poppins-SemiBold, Poppins" font-size="110" font-weight="500"><tspan x="244" y="158">ETH Wallet</tspan></text><g id="full-color/logos/ethereum"><g id="Group-7" transform="translate(52.718750, 22.593750)"><polygon id="Fill-1" fill="#8C8C8C" points="64.829 0 18.999 72.09 1.706 99.288 64.829 72.09"/><polygon id="Fill-2" fill="#393939" points="1.707 99.288 21.958 110.637 64.83 134.659 64.83 110.637 64.83 72.089"/><polygon id="Fill-3" fill="#343434" points="64.829 0 64.829 72.09 127.952 99.288 127.952 99.288 110.661 72.09"/><polygon id="Fill-4" fill="#151515" points="64.829 110.637 64.829 134.66 107.702 110.637 127.952 99.288 64.829 72.091"/><polygon id="Fill-5" fill="#8C8C8C" points="1.707 110.637 19.691 134.66 64.83 194.959 64.83 145.99 64.83 145.988 44.601 134.66 1.709 110.637"/><polygon id="Fill-6" fill="#343434" points="85.071 134.659 64.83 145.989 64.83 194.96 109.996 134.659 127.953 110.686 127.953 110.657"/></g></g></g></svg>