<svg xmlns="http://www.w3.org/2000/svg" xmlns:xlink="http://www.w3.org/1999/xlink" width="350" height="350" version="1.1" viewBox="0 0 350 350"><title>Rectangle</title><desc>Created with Sketch.</desc><defs><path id="path-1" d="M47,81.1774801 L47,181.17748 C47,183.17748 55.6821062,219.809919 90.0026218,219.809919 L174.199694,219.809919 L174.199694,116.313633 C174.199694,116.313633 170.164846,80 130.496941,80 L99,80 L118,105.327179 L135.212366,105.327179 C135.212366,105.327179 150.573957,110.285667 150.573957,127.057024 C150.525344,149.710509 150.282281,172.704282 150.039218,195.503605 L89.1275945,195.503605 C89.1275945,195.503605 68.5347389,195.210362 68,174.209706 C67.6836275,161.842418 67.959677,139.956226 68,124.17748 C68.0200749,116.321973 68.0072996,108.470399 68.0016301,105.738674 C68.000969,105.420125 68.0004045,105.171196 68,105 C68,105 67.5867152,104.531167 67.3800727,104.296751 C62.8511677,99.1591352 56.0578101,91.4527116 47,81.1774801 Z"/><filter id="filter-2" width="111.8%" height="110.7%" x="-5.9%" y="-3.9%" filterUnits="objectBoundingBox"><feMorphology in="SourceAlpha" operator="dilate" radius=".5" result="shadowSpreadOuter1"/><feOffset dx="0" dy="2" in="shadowSpreadOuter1" result="shadowOffsetOuter1"/><feGaussianBlur in="shadowOffsetOuter1" result="shadowBlurOuter1" stdDeviation="2"/><feComposite in="shadowBlurOuter1" in2="SourceAlpha" operator="out" result="shadowBlurOuter1"/><feColorMatrix in="shadowBlurOuter1" type="matrix" values="0 0 0 0 0 0 0 0 0 0 0 0 0 0 0 0 0 0 0.5 0"/></filter><polygon id="path-3" points="201 80.177 180 105.177 194.941 105.177 205.722 105.177 231 105.177 250 80"/><filter id="filter-4" width="121.4%" height="159.6%" x="-10.7%" y="-21.8%" filterUnits="objectBoundingBox"><feMorphology in="SourceAlpha" operator="dilate" radius=".5" result="shadowSpreadOuter1"/><feOffset dx="0" dy="2" in="shadowSpreadOuter1" result="shadowOffsetOuter1"/><feGaussianBlur in="shadowOffsetOuter1" result="shadowBlurOuter1" stdDeviation="2"/><feComposite in="shadowBlurOuter1" in2="SourceAlpha" operator="out" result="shadowBlurOuter1"/><feColorMatrix in="shadowBlurOuter1" type="matrix" values="0 0 0 0 0 0 0 0 0 0 0 0 0 0 0 0 0 0 0.5 0"/></filter></defs><g id="Page-1" fill="none" fill-rule="evenodd" stroke="none" stroke-width="1"><g id="LTO-LOGO" fill-rule="nonzero" transform="translate(25.000000, 24.000000)"><g id="path4584"><use fill="#000" fill-opacity="1" filter="url(#filter-2)" xlink:href="#path-1"/><use fill="#9867D0" stroke="#9867D0" stroke-width="1" xlink:href="#path-1"/></g><g id="path4586" transform="translate(215.000000, 92.588740) scale(1, -1) translate(-215.000000, -92.588740)"><use fill="#000" fill-opacity="1" filter="url(#filter-4)" xlink:href="#path-3"/><use fill="#9867D0" stroke="#9867D0" stroke-width="1" xlink:href="#path-3"/></g></g></g></svg>