<svg xmlns="http://www.w3.org/2000/svg" xmlns:xlink="http://www.w3.org/1999/xlink" width="80" height="78" version="1.1" viewBox="0 0 80 78"><title>deposit-eth</title><desc>Created with Sketch.</desc><defs><circle id="path-1" cx="34" cy="34" r="34"/><circle id="path-2" cx="17" cy="17" r="17"/></defs><g id="Buy-ETH" fill="none" fill-rule="evenodd" stroke="none" stroke-width="1"><g id="deposit-Ether" transform="translate(-79.000000, -146.000000)"><g id="Group-12" transform="translate(8.000000, 10.000000)"><g id="Group-7" transform="translate(71.000000, 122.000000)"><g id="deposit-eth" transform="translate(0.000000, 14.000000)"><g id="Oval"><use fill="#FFF" fill-rule="evenodd" xlink:href="#path-1"/><circle cx="34" cy="34" r="32.5" stroke="#38393A" stroke-width="3"/></g><path id="Shape" fill="#38393A" d="M34.406509,44.95 L22,37.7 L34.406509,55 L46.8205983,37.7 L34.4039822,44.95 L34.406509,44.95 Z M34.593491,15 L22.186982,35.37 L34.593491,42.6275 L47,35.3775 L34.593491,15 Z"/><g id="Group-6" transform="translate(46.000000, 44.000000)"><g id="Oval-Copy"><use fill="#FFF" fill-rule="evenodd" xlink:href="#path-2"/><circle cx="17" cy="17" r="15.5" stroke="#38393A" stroke-width="3"/></g><path id="Combined-Shape" fill="#38393A" d="M19.0769231,15.4230769 L25.5,15.4230769 L25.5,19.5769231 L19.0769231,19.5769231 L19.0769231,26 L14.9230769,26 L14.9230769,19.5769231 L8.5,19.5769231 L8.5,15.4230769 L14.9230769,15.4230769 L14.9230769,9 L19.0769231,9 L19.0769231,15.4230769 Z"/></g></g></g></g></g></g></svg>