<svg xmlns="http://www.w3.org/2000/svg" width="120" height="120" class="uil-default" preserveAspectRatio="xMidYMid" viewBox="0 0 100 100"><rect width="100" height="100" x="0" y="0" fill="none" class="bk"/><rect width="8" height="22" x="46" y="39" fill="#ffae29" rx="5" ry="5" transform="rotate(0 50 50) translate(0 -20)"><animate attributeName="opacity" begin="0s" dur="1s" from="1" repeatCount="indefinite" to="0"/></rect><rect width="8" height="22" x="46" y="39" fill="#ffae29" rx="5" ry="5" transform="rotate(40 50 50) translate(0 -20)"><animate attributeName="opacity" begin="0.1111111111111111s" dur="1s" from="1" repeatCount="indefinite" to="0"/></rect><rect width="8" height="22" x="46" y="39" fill="#ffae29" rx="5" ry="5" transform="rotate(80 50 50) translate(0 -20)"><animate attributeName="opacity" begin="0.2222222222222222s" dur="1s" from="1" repeatCount="indefinite" to="0"/></rect><rect width="8" height="22" x="46" y="39" fill="#ffae29" rx="5" ry="5" transform="rotate(120 50 50) translate(0 -20)"><animate attributeName="opacity" begin="0.3333333333333333s" dur="1s" from="1" repeatCount="indefinite" to="0"/></rect><rect width="8" height="22" x="46" y="39" fill="#ffae29" rx="5" ry="5" transform="rotate(160 50 50) translate(0 -20)"><animate attributeName="opacity" begin="0.4444444444444444s" dur="1s" from="1" repeatCount="indefinite" to="0"/></rect><rect width="8" height="22" x="46" y="39" fill="#ffae29" rx="5" ry="5" transform="rotate(200 50 50) translate(0 -20)"><animate attributeName="opacity" begin="0.5555555555555556s" dur="1s" from="1" repeatCount="indefinite" to="0"/></rect><rect width="8" height="22" x="46" y="39" fill="#ffae29" rx="5" ry="5" transform="rotate(240 50 50) translate(0 -20)"><animate attributeName="opacity" begin="0.6666666666666666s" dur="1s" from="1" repeatCount="indefinite" to="0"/></rect><rect width="8" height="22" x="46" y="39" fill="#ffae29" rx="5" ry="5" transform="rotate(280 50 50) translate(0 -20)"><animate attributeName="opacity" begin="0.7777777777777778s" dur="1s" from="1" repeatCount="indefinite" to="0"/></rect><rect width="8" height="22" x="46" y="39" fill="#ffae29" rx="5" ry="5" transform="rotate(320 50 50) translate(0 -20)"><animate attributeName="opacity" begin="0.8888888888888888s" dur="1s" from="1" repeatCount="indefinite" to="0"/></rect></svg>