<svg xmlns="http://www.w3.org/2000/svg" xmlns:xlink="http://www.w3.org/1999/xlink" id="Layer_1" width="24.088" height="24" x="0" y="0" enable-background="new 27.191 0 24.088 24" version="1.1" viewBox="27.191 0 24.088 24" xml:space="preserve"><path d="M47.576,24H31.588c-1.104,0-1.998-0.896-1.998-2.002V11.993c0-1.105,0.896-2.002,1.998-2.002h1V6.99	c0-3.868,3.131-7.004,6.994-7.004s6.995,3.136,6.995,7.004v3.001h0.999c1.104,0,1.998,0.896,1.998,2.002v10.005	C49.574,23.102,48.68,24,47.576,24z M43.579,6.99c0-2.21-1.79-4.002-3.997-4.002S35.585,4.78,35.585,6.99v3.001h7.994V6.99z"/></svg>